<svg width="75" height="75" viewBox="0 0 75 75" fill="none" xmlns="http://www.w3.org/2000/svg">
<path d="M67.7262 4.64363C68.4831 4.64363 69.016 4.78425 69.2935 4.89106C69.6267 5.77802 70.0737 8.95662 66.7882 12.2444L50.0276 29.0038L50.1483 31.0831C50.4026 35.4343 50.8739 43.2324 51.2803 49.917C51.639 55.8668 51.9792 61.4858 52.0012 61.9641C52.0128 62.2927 52.0175 62.3705 51.7111 62.7397C51.0261 63.5721 49.7479 64.9827 48.6705 66.1517C46.9999 61.6507 43.4892 52.1437 41.5505 46.822L39.0591 39.9747L33.9056 45.1282L24.4288 54.2404L23.1089 55.5581L23.0682 57.4214C23.0369 58.9086 23.0438 61.5776 23.0473 63.9308C23.052 65.5701 23.0567 67.0596 23.0451 67.8804C23.0242 67.9187 23.362 67.964 23.3307 68.0185C23.1287 67.6946 22.9116 67.3452 22.6817 66.9818C20.7708 63.9343 18.1262 59.7189 17.3193 58.4036L16.7295 57.44L15.7613 56.8548C12.2402 54.728 8.33939 52.2726 5.95945 50.739C6.04188 50.6914 6.10914 50.9433 6.1637 50.9142H6.31811C7.06692 50.9142 8.30448 50.9305 9.69181 50.9502C11.5064 50.9746 13.5647 51.0048 15.1401 51.0048C15.7438 51.0048 16.2802 51.0002 16.712 50.9909L18.5754 50.9479L19.893 49.6302L29.0169 40.2185L34.1529 35.0848L27.3371 32.5771C22.215 30.693 12.4039 27.029 7.81464 25.305C8.99176 24.2206 10.4104 22.9332 11.2382 22.2481C11.4692 22.0577 11.6492 21.9603 11.7734 21.9603L11.9371 21.9649C12.4491 21.9893 18.8076 22.4049 24.9547 22.8066C31.4804 23.2327 38.8454 23.7133 43.0328 23.9792L45.126 24.1104L61.8889 7.34631C64.2433 4.9954 66.5559 4.64363 67.7262 4.64363ZM67.7263 7.25538e-05C64.983 7.25538e-05 61.6152 1.05407 58.6072 4.06323L43.3257 19.3436C34.7184 18.7991 12.6744 17.341 12.1276 17.3259C12.0097 17.3199 11.8916 17.3168 11.7735 17.3165C11.0294 17.3165 9.7442 17.4593 8.28141 18.6678C6.56437 20.0878 2.98402 23.4546 2.98402 23.4546C2.12028 24.3206 1.6826 25.3933 1.78709 26.4021C1.85094 27.0116 2.18181 28.1227 3.67826 28.7078C4.58728 29.0643 19.0538 34.4766 25.734 36.9343L16.6101 46.3461C16.206 46.3554 15.7057 46.36 15.1403 46.36C12.3587 46.36 8.04574 46.2695 6.31702 46.2695C6.08831 46.2695 5.90488 46.2695 5.77479 46.2741C5.24888 46.2904 4.15991 46.0315 1.28773 48.4323L1.08341 48.6227C0.221987 49.4841 0.0199825 50.3432 0.00140743 50.9109C-0.0171677 51.496 0.13956 52.3389 0.985889 53.0169C1.49438 53.4278 8.01309 57.6014 13.3592 60.83C14.6409 62.921 20.5385 72.2944 20.8462 72.8028C21.2955 73.5621 22.0303 73.9951 22.9092 74.023H22.9824C23.8368 74.023 24.7145 73.5993 25.5736 72.7645C28.0046 69.9214 27.6691 68.7443 27.6795 68.2496C27.7178 66.6986 27.6528 60.1277 27.7085 57.5225L37.1841 48.4091C39.6059 55.0613 44.8998 69.3792 45.2539 70.2905C45.8436 71.7869 46.9547 72.1156 47.5642 72.177C47.664 72.1886 47.7662 72.1934 47.866 72.1934C48.7821 72.1934 49.7316 71.7626 50.5095 70.9849C50.5095 70.9849 53.8658 67.4231 55.2914 65.6898C56.7194 63.9577 56.6637 62.4786 56.6359 61.7809C56.6242 61.298 55.2798 39.3735 54.7806 30.8115L70.0656 15.5265C75.4826 10.1071 74.6212 3.57687 72.6093 1.56844C71.7212 0.67567 69.9229 0.000145113 67.7263 7.25538e-05Z" fill="black"/>
</svg>
